<svg width="26" height="25" viewBox="0 0 26 25" fill="none" xmlns="http://www.w3.org/2000/svg">
<path d="M12.9919 24.63C7.98517 25.2844 3.7958 25.2979 4.16723 19.9197C4.35782 17.1521 7.30383 15.4623 8.7131 13.9275C10.4021 12.085 10.7195 10.661 13.1179 10.5398C15.4572 10.4194 16.9445 13.3371 18.5896 15.4251C20.3358 17.6396 22.1636 18.7147 21.5057 21.9062C20.9213 24.7454 18.8664 25.5677 12.9919 24.63Z" fill="#0D96A0"/>
<path d="M9.12328 0.148663C12.2702 0.515835 14.0127 10.6128 8.21805 9.0657C3.9078 7.91177 5.89055 -0.135898 9.12328 0.148663Z" fill="#0D96A0"/>
<path d="M3.17617 7.08345C6.33627 7.26538 8.54362 17.2369 2.68443 16.0405C-1.67527 15.1447 -0.148663 6.64855 3.17617 7.08345Z" fill="#0D96A0"/>
<path d="M15.6947 0.133498C12.6387 1.09088 12.2891 11.3838 17.796 8.7635C21.8966 6.81262 18.7184 -1.11966 15.6947 0.133498Z" fill="#0D96A0"/>
<path d="M23.0104 7.39305C19.8587 7.08283 16.4957 15.4536 22.3201 16.3319C26.7075 16.9921 26.1553 7.44834 23.0104 7.39305Z" fill="#0D96A0"/>
</svg>
